<svg xmlns="http://www.w3.org/2000/svg" viewBox="0 0 200 200" width="200" height="200">
  <g fill="none" stroke="#140A3C" stroke-width="7" stroke-linejoin="round" stroke-linecap="round" transform="translate(100 100) scale(1.3939) translate(-100.00 -100.00)">
    <rect x="38" y="38" width="124" height="124" rx="16" fill="#10608E"/>
    <rect x="52" y="52" width="28" height="28" rx="7" fill="#1788C7"/>
    <rect x="86" y="52" width="28" height="28" rx="7" fill="#F8C818"/>
    <rect x="120" y="52" width="28" height="28" rx="7" fill="#1788C7"/>
    <rect x="52" y="86" width="28" height="28" rx="7" fill="#F8C818"/>
    <rect x="86" y="86" width="28" height="28" rx="7" fill="#F8C818"/>
    <rect x="120" y="86" width="28" height="28" rx="7" fill="#F8C818"/>
    <rect x="52" y="120" width="28" height="28" rx="7" fill="#1788C7"/>
    <rect x="86" y="120" width="28" height="28" rx="7" fill="#F8C818"/>
    <rect x="120" y="120" width="28" height="28" rx="7" fill="#1788C7"/>
    <path d="M92 58 H108" stroke="#FFFFFF" stroke-width="4" opacity=".85"/>
  </g>
</svg>
